<mxfile host="app.diagrams.net" agent="Mozilla/5.0 (Windows NT 10.0; Win64; x64) AppleWebKit/537.36 (KHTML, like Gecko) Chrome/114.0.0.0 Safari/537.36" version="26.1.0">
  <diagram name="第 1 页" id="9Vp9r34HSa7TCJ5cDDs_">
    <mxGraphModel dx="2261" dy="764" grid="1" gridSize="10" guides="1" tooltips="1" connect="1" arrows="1" fold="1" page="1" pageScale="1" pageWidth="827" pageHeight="1169" math="0" shadow="0">
      <root>
        <mxCell id="0" />
        <mxCell id="1" parent="0" />
        <mxCell id="90wLf6iU2kTBtkmCEFJq-8" style="edgeStyle=orthogonalEdgeStyle;rounded=0;orthogonalLoop=1;jettySize=auto;html=1;exitX=1;exitY=0.5;exitDx=0;exitDy=0;entryX=0;entryY=0.5;entryDx=0;entryDy=0;entryPerimeter=0;" parent="1" source="90wLf6iU2kTBtkmCEFJq-5" target="imzAhuGTkj68UniixFWX-2" edge="1">
          <mxGeometry relative="1" as="geometry">
            <mxPoint x="-70" y="120" as="sourcePoint" />
            <mxPoint x="155" y="160" as="targetPoint" />
          </mxGeometry>
        </mxCell>
        <mxCell id="90wLf6iU2kTBtkmCEFJq-10" value="生成画像任务id&lt;br&gt;&lt;span style=&quot;color: rgb(33, 33, 33); font-family: Inter, OpenSans, Helvetica, Arial, sans-serif; font-size: 12px; text-align: left; white-space: pre-wrap;&quot;&gt;某批次数据&lt;/span&gt;" style="edgeLabel;html=1;align=center;verticalAlign=middle;resizable=0;points=[];" parent="90wLf6iU2kTBtkmCEFJq-8" vertex="1" connectable="0">
          <mxGeometry x="-0.1" y="-2" relative="1" as="geometry">
            <mxPoint x="-4" y="-2" as="offset" />
          </mxGeometry>
        </mxCell>
        <mxCell id="90wLf6iU2kTBtkmCEFJq-5" value="个性化引擎客户端" style="rounded=0;whiteSpace=wrap;html=1;fillColor=#fff2cc;strokeColor=#d6b656;" parent="1" vertex="1">
          <mxGeometry x="-240" y="150" width="110" height="70" as="geometry" />
        </mxCell>
        <mxCell id="imzAhuGTkj68UniixFWX-3" style="edgeStyle=orthogonalEdgeStyle;rounded=0;orthogonalLoop=1;jettySize=auto;html=1;exitX=0.5;exitY=1;exitDx=0;exitDy=0;exitPerimeter=0;entryX=0.5;entryY=0;entryDx=0;entryDy=0;" edge="1" parent="1" source="imzAhuGTkj68UniixFWX-2" target="imzAhuGTkj68UniixFWX-5">
          <mxGeometry relative="1" as="geometry">
            <mxPoint x="125" y="330" as="targetPoint" />
          </mxGeometry>
        </mxCell>
        <mxCell id="imzAhuGTkj68UniixFWX-4" value="否，暂存至数据库" style="edgeLabel;html=1;align=center;verticalAlign=middle;resizable=0;points=[];" vertex="1" connectable="0" parent="imzAhuGTkj68UniixFWX-3">
          <mxGeometry x="-0.0277" y="-1" relative="1" as="geometry">
            <mxPoint x="1" y="-3" as="offset" />
          </mxGeometry>
        </mxCell>
        <mxCell id="imzAhuGTkj68UniixFWX-6" style="edgeStyle=orthogonalEdgeStyle;rounded=0;orthogonalLoop=1;jettySize=auto;html=1;exitX=1;exitY=0.5;exitDx=0;exitDy=0;exitPerimeter=0;entryX=0;entryY=0.5;entryDx=0;entryDy=0;" edge="1" parent="1" source="imzAhuGTkj68UniixFWX-2" target="imzAhuGTkj68UniixFWX-7">
          <mxGeometry relative="1" as="geometry">
            <mxPoint x="280" y="185" as="targetPoint" />
          </mxGeometry>
        </mxCell>
        <mxCell id="imzAhuGTkj68UniixFWX-8" value="是" style="edgeLabel;html=1;align=center;verticalAlign=middle;resizable=0;points=[];" vertex="1" connectable="0" parent="imzAhuGTkj68UniixFWX-6">
          <mxGeometry x="-0.2371" y="-2" relative="1" as="geometry">
            <mxPoint as="offset" />
          </mxGeometry>
        </mxCell>
        <mxCell id="imzAhuGTkj68UniixFWX-2" value="是否收完某次任务&lt;br&gt;全量的端侧数据" style="strokeWidth=2;html=1;shape=mxgraph.flowchart.decision;whiteSpace=wrap;" vertex="1" parent="1">
          <mxGeometry x="60" y="130" width="130" height="110" as="geometry" />
        </mxCell>
        <mxCell id="imzAhuGTkj68UniixFWX-27" style="edgeStyle=orthogonalEdgeStyle;rounded=0;orthogonalLoop=1;jettySize=auto;html=1;exitX=0.75;exitY=0;exitDx=0;exitDy=0;entryX=0;entryY=0.5;entryDx=0;entryDy=0;" edge="1" parent="1" source="imzAhuGTkj68UniixFWX-5" target="imzAhuGTkj68UniixFWX-14">
          <mxGeometry relative="1" as="geometry" />
        </mxCell>
        <mxCell id="imzAhuGTkj68UniixFWX-28" value="读数据" style="edgeLabel;html=1;align=center;verticalAlign=middle;resizable=0;points=[];" vertex="1" connectable="0" parent="imzAhuGTkj68UniixFWX-27">
          <mxGeometry x="-0.1253" relative="1" as="geometry">
            <mxPoint y="-50" as="offset" />
          </mxGeometry>
        </mxCell>
        <mxCell id="imzAhuGTkj68UniixFWX-5" value="数据库" style="rounded=1;whiteSpace=wrap;html=1;absoluteArcSize=1;arcSize=14;strokeWidth=2;" vertex="1" parent="1">
          <mxGeometry x="39.379999999999995" y="730" width="171.25" height="60" as="geometry" />
        </mxCell>
        <mxCell id="imzAhuGTkj68UniixFWX-7" value="并发查询&lt;br&gt;外部依赖的数据" style="rounded=1;whiteSpace=wrap;html=1;absoluteArcSize=1;arcSize=14;strokeWidth=2;" vertex="1" parent="1">
          <mxGeometry x="290" y="150" width="172.5" height="70" as="geometry" />
        </mxCell>
        <mxCell id="imzAhuGTkj68UniixFWX-10" value="小布助手" style="rounded=1;whiteSpace=wrap;html=1;absoluteArcSize=1;arcSize=14;strokeWidth=2;fillColor=#dae8fc;strokeColor=#6c8ebf;" vertex="1" parent="1">
          <mxGeometry x="230" y="320" width="152.5" height="60" as="geometry" />
        </mxCell>
        <mxCell id="imzAhuGTkj68UniixFWX-11" value="健康云" style="rounded=1;whiteSpace=wrap;html=1;absoluteArcSize=1;arcSize=14;strokeWidth=2;fillColor=#dae8fc;strokeColor=#6c8ebf;" vertex="1" parent="1">
          <mxGeometry x="400" y="320" width="152.5" height="60" as="geometry" />
        </mxCell>
        <mxCell id="imzAhuGTkj68UniixFWX-12" style="edgeStyle=orthogonalEdgeStyle;rounded=0;orthogonalLoop=1;jettySize=auto;html=1;exitX=0.5;exitY=1;exitDx=0;exitDy=0;entryX=0.413;entryY=0.017;entryDx=0;entryDy=0;entryPerimeter=0;" edge="1" parent="1" source="imzAhuGTkj68UniixFWX-7" target="imzAhuGTkj68UniixFWX-10">
          <mxGeometry relative="1" as="geometry" />
        </mxCell>
        <mxCell id="imzAhuGTkj68UniixFWX-13" style="edgeStyle=orthogonalEdgeStyle;rounded=0;orthogonalLoop=1;jettySize=auto;html=1;exitX=0.5;exitY=1;exitDx=0;exitDy=0;entryX=0.459;entryY=-0.067;entryDx=0;entryDy=0;entryPerimeter=0;" edge="1" parent="1" source="imzAhuGTkj68UniixFWX-7" target="imzAhuGTkj68UniixFWX-11">
          <mxGeometry relative="1" as="geometry" />
        </mxCell>
        <mxCell id="imzAhuGTkj68UniixFWX-17" style="edgeStyle=orthogonalEdgeStyle;rounded=0;orthogonalLoop=1;jettySize=auto;html=1;exitX=0.25;exitY=0;exitDx=0;exitDy=0;entryX=0.5;entryY=1;entryDx=0;entryDy=0;" edge="1" parent="1" source="imzAhuGTkj68UniixFWX-14" target="imzAhuGTkj68UniixFWX-10">
          <mxGeometry relative="1" as="geometry" />
        </mxCell>
        <mxCell id="imzAhuGTkj68UniixFWX-20" style="edgeStyle=orthogonalEdgeStyle;rounded=0;orthogonalLoop=1;jettySize=auto;html=1;exitX=0.5;exitY=1;exitDx=0;exitDy=0;entryX=0.5;entryY=0;entryDx=0;entryDy=0;" edge="1" parent="1" source="imzAhuGTkj68UniixFWX-14" target="imzAhuGTkj68UniixFWX-19">
          <mxGeometry relative="1" as="geometry">
            <Array as="points">
              <mxPoint x="395" y="540" />
              <mxPoint x="715" y="540" />
            </Array>
          </mxGeometry>
        </mxCell>
        <mxCell id="imzAhuGTkj68UniixFWX-14" value="聚合端侧及云侧数据&lt;br&gt;统一格式化数据" style="rounded=1;whiteSpace=wrap;html=1;absoluteArcSize=1;arcSize=14;strokeWidth=2;" vertex="1" parent="1">
          <mxGeometry x="260" y="450" width="270" height="60" as="geometry" />
        </mxCell>
        <mxCell id="imzAhuGTkj68UniixFWX-18" style="edgeStyle=orthogonalEdgeStyle;rounded=0;orthogonalLoop=1;jettySize=auto;html=1;exitX=0.75;exitY=0;exitDx=0;exitDy=0;entryX=0.459;entryY=1.017;entryDx=0;entryDy=0;entryPerimeter=0;" edge="1" parent="1" source="imzAhuGTkj68UniixFWX-14" target="imzAhuGTkj68UniixFWX-11">
          <mxGeometry relative="1" as="geometry" />
        </mxCell>
        <mxCell id="imzAhuGTkj68UniixFWX-24" style="edgeStyle=orthogonalEdgeStyle;rounded=0;orthogonalLoop=1;jettySize=auto;html=1;exitX=0;exitY=0.5;exitDx=0;exitDy=0;entryX=1;entryY=0.5;entryDx=0;entryDy=0;" edge="1" parent="1" source="imzAhuGTkj68UniixFWX-19" target="imzAhuGTkj68UniixFWX-25">
          <mxGeometry relative="1" as="geometry">
            <mxPoint x="400" y="610" as="targetPoint" />
          </mxGeometry>
        </mxCell>
        <mxCell id="imzAhuGTkj68UniixFWX-19" value="算法模块" style="rounded=1;whiteSpace=wrap;html=1;absoluteArcSize=1;arcSize=14;strokeWidth=2;fillColor=#e1d5e7;strokeColor=#9673a6;" vertex="1" parent="1">
          <mxGeometry x="580" y="555" width="270" height="60" as="geometry" />
        </mxCell>
        <mxCell id="imzAhuGTkj68UniixFWX-25" value="加密画像" style="rounded=1;whiteSpace=wrap;html=1;absoluteArcSize=1;arcSize=14;strokeWidth=2;" vertex="1" parent="1">
          <mxGeometry x="382.5" y="615" width="130" height="45" as="geometry" />
        </mxCell>
        <mxCell id="imzAhuGTkj68UniixFWX-29" style="edgeStyle=orthogonalEdgeStyle;rounded=0;orthogonalLoop=1;jettySize=auto;html=1;exitX=0;exitY=0.5;exitDx=0;exitDy=0;entryX=0.885;entryY=0;entryDx=0;entryDy=0;entryPerimeter=0;" edge="1" parent="1" source="imzAhuGTkj68UniixFWX-25" target="imzAhuGTkj68UniixFWX-5">
          <mxGeometry relative="1" as="geometry" />
        </mxCell>
        <mxCell id="imzAhuGTkj68UniixFWX-31" value="存储画像数据 &amp;amp;&amp;amp;&amp;nbsp;&lt;br&gt;删除端侧上传的用户数据" style="edgeLabel;html=1;align=center;verticalAlign=middle;resizable=0;points=[];" vertex="1" connectable="0" parent="imzAhuGTkj68UniixFWX-29">
          <mxGeometry x="-0.1472" relative="1" as="geometry">
            <mxPoint x="9" y="25" as="offset" />
          </mxGeometry>
        </mxCell>
        <mxCell id="imzAhuGTkj68UniixFWX-32" value="生成画像" style="text;html=1;align=center;verticalAlign=middle;resizable=0;points=[];autosize=1;strokeColor=none;fillColor=none;" vertex="1" parent="1">
          <mxGeometry x="540" y="510" width="70" height="30" as="geometry" />
        </mxCell>
      </root>
    </mxGraphModel>
  </diagram>
</mxfile>
